<svg data-name="Layer 1" xmlns="http://www.w3.org/2000/svg" viewBox="0 0 100 100"><path d="M76.8 87.4c1.1.7 2.5 1.1 3.9 1.1 4.2 0 7.7-3.5 7.7-7.7s-.4-2.7-1.1-3.9L76.8 87.5ZM80.7 73c-4.2 0-7.7 3.5-7.7 7.7s.4 2.7 1.1 3.9L84.6 74c-1.1-.7-2.5-1.1-3.9-1.1m0 19.4c-3.1 0-6-1.3-8.1-3.3-2-2.2-3.3-5-3.3-8.2 0-6.4 5.2-11.6 11.6-11.6s6 1.2 8.1 3.3h.2c.2 0 0 0 0 .2 2 2.1 3.3 4.9 3.3 8.1 0 6.4-5.2 11.6-11.6 11.6m-.2-31c-10.6 0-19.3 8.7-19.3 19.3S70 100 80.7 100 100 91.3 100 80.7s-8.6-19.3-19.3-19.3" style="fill-rule:evenodd;stroke-width:0;fill:#ff5f5d"/><path d="M38.8 46.8c-1.8 0-3.2-1.4-3.2-3.2s1.4-3.2 3.2-3.2 3.2 1.4 3.2 3.2-1.4 3.2-3.2 3.2m-12.2 0c-1.8 0-3.2-1.4-3.2-3.2s1.4-3.2 3.2-3.2 3.2 1.4 3.2 3.2-1.4 3.2-3.2 3.2m-12.3 0c-1.8 0-3.2-1.4-3.2-3.2s1.4-3.2 3.2-3.2 3.2 1.4 3.2 3.2-1.4 3.2-3.2 3.2m55.2-16.1H12.9C5.8 30.7 0 36.5 0 43.6s5.8 12.9 12.9 12.9h56.6c7.1 0 12.9-5.8 12.9-12.9s-5.8-12.9-12.9-12.9M38.8 16.1c-1.8 0-3.2-1.4-3.2-3.2s1.4-3.2 3.2-3.2 3.2 1.4 3.2 3.2-1.4 3.2-3.2 3.2m-12.2 0c-1.8 0-3.2-1.4-3.2-3.2s1.4-3.2 3.2-3.2 3.2 1.4 3.2 3.2-1.4 3.2-3.2 3.2m-12.3 0c-1.8 0-3.2-1.4-3.2-3.2s1.4-3.2 3.2-3.2 3.2 1.4 3.2 3.2-1.4 3.2-3.2 3.2M69.5 0H12.9C5.8 0 0 5.8 0 12.9s5.8 12.9 12.9 12.9h56.6c7.1 0 12.9-5.8 12.9-12.9S76.6 0 69.5 0M38.8 77.6c-1.8 0-3.2-1.4-3.2-3.2s1.4-3.2 3.2-3.2 3.2 1.4 3.2 3.2-1.4 3.2-3.2 3.2m-12.2 0c-1.8 0-3.2-1.4-3.2-3.2s1.4-3.2 3.2-3.2 3.2 1.4 3.2 3.2-1.4 3.2-3.2 3.2m-12.3 0c-1.8 0-3.2-1.4-3.2-3.2s1.4-3.2 3.2-3.2 3.2 1.4 3.2 3.2-1.4 3.2-3.2 3.2m53.5-16.2H12.9C5.8 61.4 0 67.2 0 74.3s5.8 12.9 12.9 12.9h45.6c-.6-2.1-1-4.3-1-6.6 0-8 4.1-15.1 10.2-19.3" style="fill:#03a64a;fill-rule:evenodd;stroke-width:0"/></svg>