<?xml version="1.0" encoding="UTF-8" standalone="no"?>
<!-- Created with Inkscape (http://www.inkscape.org/) -->

<svg
   version="1.1"
   id="svg2"
   width="306.80533"
   height="297.552"
   viewBox="0 0 306.80533 297.552"
   sodipodi:docname="Semiotic Small.ai"
   xmlns:inkscape="http://www.inkscape.org/namespaces/inkscape"
   xmlns:sodipodi="http://sodipodi.sourceforge.net/DTD/sodipodi-0.dtd"
   xmlns="http://www.w3.org/2000/svg"
   xmlns:svg="http://www.w3.org/2000/svg">
  <defs
     id="defs6">
    <clipPath
       clipPathUnits="userSpaceOnUse"
       id="clipPath16">
      <path
         d="M 0,223.164 H 230.104 V 0 H 0 Z"
         id="path14" />
    </clipPath>
  </defs>
  <sodipodi:namedview
     id="namedview4"
     pagecolor="#ffffff"
     bordercolor="#000000"
     borderopacity="0.25"
     inkscape:showpageshadow="2"
     inkscape:pageopacity="0.0"
     inkscape:pagecheckerboard="0"
     inkscape:deskcolor="#d1d1d1" />
  <g
     id="g8"
     inkscape:groupmode="layer"
     inkscape:label="Semiotic Small"
     transform="matrix(1.3333333,0,0,-1.3333333,0,297.552)">
    <g
       id="g10">
      <g
         id="g12"
         clip-path="url(#clipPath16)">
        <g
           id="g18"
           transform="translate(230.1035,124.1191)">
          <path
             d="m 0,0 c 0,0.441 -0.023,0.875 -0.053,1.308 l -0.013,0.205 c -0.043,0.699 -0.118,1.399 -0.217,2.067 -0.116,0.786 -0.272,1.57 -0.459,2.324 -0.175,0.7 -0.376,1.385 -0.602,2.041 -0.247,0.716 -0.505,1.372 -0.788,2.006 -1.915,4.279 -5.072,7.908 -8.964,10.463 l -3.947,9.567 c -17.305,41.955 -57.807,69.064 -103.185,69.064 -61.526,0 -111.582,-50.056 -111.582,-111.582 0,-0.479 0.016,-0.977 0.022,-1.466 l -0.316,-0.031 0.579,-6.604 0.42,-7.339 0.362,0.043 c 3.532,-25.558 15.81,-49.073 34.954,-66.703 20.643,-19.012 47.478,-29.482 75.561,-29.482 56.19,0 103.789,41.989 110.719,97.669 l 1.27,10.199 c 3.786,4.254 6.04,9.763 6.213,15.518 C -0.01,-0.491 0,-0.247 0,0"
             style="fill:#ffffff;fill-opacity:1;fill-rule:nonzero;stroke:none"
             id="path20" />
        </g>
        <g
           id="g22"
           transform="translate(57.4637,136.5273)">
          <path
             d="m 0,0 c -0.562,2.811 -0.787,5.734 -0.787,8.77 0,14.953 7.308,27.208 22.036,36.989 11.131,7.308 22.936,11.018 35.641,11.018 14.728,0 30.693,-4.947 47.895,-14.728 L 85.897,11.018 C 74.991,17.202 65.322,20.35 57.115,20.35 51.606,20.35 46.659,18.888 42.274,16.078 38.451,13.492 36.54,10.681 36.54,7.42 c 0,-0.562 0,-1.124 0.112,-1.461 1.125,-6.409 8.32,-11.356 21.475,-14.841 7.247,-1.912 13.687,-4.282 19.326,-7.106 l 43.873,5.183 c 0.833,14.026 12.503,25.184 26.735,25.184 0.514,0 1.025,-0.019 1.532,-0.047 -15.446,37.446 -52.306,63.805 -95.327,63.805 -56.931,0 -103.082,-46.152 -103.082,-103.082 0,-1.994 0.062,-3.973 0.174,-5.939 l 60.237,7.116 C 5.46,-17.125 1.59,-9.205 0,0"
             style="fill:#231f20;fill-opacity:1;fill-rule:nonzero;stroke:none"
             id="path24" />
        </g>
        <g
           id="g26"
           transform="translate(179.1434,119.5061)">
          <path
             d="m 0,0 -36.247,-3.632 c 11.726,-7.996 18.706,-18.685 20.926,-32.077 0.45,-2.81 0.675,-5.509 0.675,-8.32 0,-15.29 -7.645,-27.882 -22.936,-37.664 -10.006,-6.408 -21.586,-9.669 -34.516,-9.669 -16.977,0 -34.066,5.285 -51.493,15.965 l 19.788,30.357 c 11.805,-7.196 22.148,-10.794 31.03,-10.794 5.51,0 10.344,1.349 14.729,4.16 4.047,2.586 6.071,5.509 6.071,8.77 0,0.562 0,1.124 -0.112,1.461 -1.012,6.409 -8.208,11.468 -21.362,14.954 -13.781,3.649 -24.65,8.94 -32.625,15.861 l -64.018,-6.414 c 4.616,-52.659 48.819,-93.964 102.676,-93.964 52.574,0 95.953,39.359 102.284,90.219 -2.67,-0.895 -5.522,-1.387 -8.489,-1.387 C 13.184,-22.174 2.194,-12.579 0,0"
             style="fill:#231f20;fill-opacity:1;fill-rule:nonzero;stroke:none"
             id="path28" />
        </g>
        <g
           id="g30"
           transform="translate(221.4064,125.1046)">
          <path
             d="m 0,0 c -0.028,0.456 -0.075,0.905 -0.141,1.349 -0.076,0.515 -0.176,1.021 -0.3,1.518 -0.112,0.448 -0.239,0.889 -0.388,1.32 -0.153,0.445 -0.321,0.881 -0.512,1.306 -1.732,3.872 -4.963,6.921 -8.953,8.422 -1.742,0.656 -3.62,1.031 -5.588,1.031 -7.789,0 -14.279,-5.622 -15.653,-13.019 -0.085,-0.458 -0.157,-0.92 -0.202,-1.391 -0.043,-0.452 -0.065,-0.911 -0.069,-1.374 -10e-4,-0.05 -0.008,-0.098 -0.008,-0.147 0,-0.282 0.028,-0.557 0.042,-0.835 0.024,-0.456 0.065,-0.906 0.126,-1.351 0.063,-0.452 0.139,-0.9 0.238,-1.34 1.611,-7.092 7.954,-12.406 15.526,-12.406 3.465,0 6.665,1.124 9.282,3.009 3.923,2.826 6.51,7.382 6.631,12.547 0.003,0.126 0.019,0.249 0.019,0.376 C 0.05,-0.653 0.02,-0.328 0,0"
             style="fill:#231f20;fill-opacity:1;fill-rule:nonzero;stroke:none"
             id="path32" />
        </g>
      </g>
    </g>
  </g>
</svg>
