<?xml version="1.0" encoding="UTF-8" standalone="no"?>
<!-- Created with Inkscape (http://www.inkscape.org/) -->

<svg
   width="210mm"
   height="297mm"
   viewBox="0 0 210 297"
   version="1.1"
   id="svg1"
   inkscape:version="1.3.2 (091e20ef0f, 2023-11-25)"
   sodipodi:docname="semiotic-icon.svg"
   xmlns:inkscape="http://www.inkscape.org/namespaces/inkscape"
   xmlns:sodipodi="http://sodipodi.sourceforge.net/DTD/sodipodi-0.dtd"
   xmlns="http://www.w3.org/2000/svg"
   xmlns:svg="http://www.w3.org/2000/svg">
  <sodipodi:namedview
     id="namedview1"
     pagecolor="#ffffff"
     bordercolor="#000000"
     borderopacity="0.25"
     inkscape:showpageshadow="2"
     inkscape:pageopacity="0.0"
     inkscape:pagecheckerboard="0"
     inkscape:deskcolor="#d1d1d1"
     inkscape:document-units="mm"
     inkscape:zoom="1.0779321"
     inkscape:cx="396.5927"
     inkscape:cy="561.25984"
     inkscape:window-width="2038"
     inkscape:window-height="1392"
     inkscape:window-x="3074"
     inkscape:window-y="40"
     inkscape:window-maximized="0"
     inkscape:current-layer="layer1" />
  <defs
     id="defs1">
    <clipPath
       id="clipPath16"
       clipPathUnits="userSpaceOnUse">
      <path
         id="path14"
         d="M0 206.16h212.8V0H0Z" />
    </clipPath>
  </defs>
  <g
     inkscape:label="Layer 1"
     inkscape:groupmode="layer"
     id="layer1">
    <g
       id="g8"
       transform="matrix(0.98278816,0,0,-0.95158218,0.38793142,222.1645)">
      <g
         id="g10">
        <g
           id="g12"
           clip-path="url(#clipPath16)">
          <g
             id="g18"
             transform="translate(48.82,128.03)">
            <path
               id="path20"
               fill="#231f20"
               fill-opacity="1"
               fill-rule="nonzero"
               stroke="none"
               d="m 0,0 a 44.67,44.67 0 0 0 -0.79,8.77 c 0,14.95 7.31,27.2 22.04,36.99 11.13,7.3 22.94,11.02 35.64,11.02 14.73,0 30.7,-4.95 47.9,-14.73 L 85.89,11.02 C 75,17.2 65.33,20.35 57.13,20.35 A 27,27 0 0 1 42.28,16.08 c -3.82,-2.59 -5.73,-5.4 -5.73,-8.66 0,-0.56 0,-1.12 0.11,-1.46 1.12,-6.41 8.31,-11.36 21.47,-14.84 a 100.25,100.25 0 0 0 19.32,-7.1 l 43.88,5.18 a 26.82,26.82 0 0 0 28.26,25.13 103.1,103.1 0 0 1 -95.32,63.8 C -2.67,78.14 -48.82,32 -48.82,-24.93 c 0,-2 0.07,-3.98 0.18,-5.94 l 60.23,7.11 A 45.73,45.73 0 0 0 0,0" />
          </g>
          <g
             id="g22"
             transform="translate(170.5,111)">
            <path
               id="path24"
               fill="#231f20"
               fill-opacity="1"
               fill-rule="nonzero"
               stroke="none"
               d="m 0,0 -36.25,-3.63 c 11.73,-8 18.7,-18.69 20.93,-32.08 0.45,-2.8 0.67,-5.5 0.67,-8.32 0,-15.29 -7.64,-27.88 -22.93,-37.66 -10,-6.41 -21.59,-9.67 -34.52,-9.67 -16.98,0 -34.06,5.28 -51.5,15.96 l 19.8,30.36 c 11.8,-7.2 22.14,-10.8 31.03,-10.8 a 26.5,26.5 0 0 1 14.73,4.17 c 4.04,2.58 6.07,5.5 6.07,8.77 0,0.56 0,1.12 -0.12,1.46 -1,6.4 -8.2,11.46 -21.36,14.95 -13.78,3.65 -24.65,8.94 -32.62,15.86 l -64.02,-6.41 c 4.62,-52.66 48.82,-93.97 102.68,-93.97 52.57,0 95.95,39.36 102.28,90.22 A 26.82,26.82 0 0 0 0,0" />
          </g>
          <g
             id="g26"
             transform="translate(212.76,116.6)">
            <path
               id="path28"
               fill="#231f20"
               fill-opacity="1"
               fill-rule="nonzero"
               stroke="none"
               d="m 0,0 a 15.71,15.71 0 0 1 -1.34,5.5 16,16 0 0 1 -14.54,9.45 15.95,15.95 0 0 1 -15.93,-15.79 v -0.14 c 0,-0.29 0.02,-0.56 0.04,-0.84 a 16.22,16.22 0 0 1 0.36,-2.7 15.95,15.95 0 0 1 15.53,-12.4 c 3.46,0 6.66,1.13 9.28,3.01 a 15.9,15.9 0 0 1 6.63,12.55 l 0.02,0.38 C 0.05,-0.65 0.02,-0.33 0,0" />
          </g>
        </g>
      </g>
    </g>
  </g>
</svg>
