<svg id="Layer_1" data-name="Layer 1" xmlns="http://www.w3.org/2000/svg" version="1.1" viewBox="0 0 100 100"><defs><style>.cls-1{fill:#747e7e;fill-rule:evenodd;stroke-width:0}</style></defs><path d="M92.1 85.5V86.4l-3.4 3.4c-.4.4-.9.6-1.4.6s-1-.2-1.4-.6c-.8-.8-.8-2 0-2.8h-9.7c-1.1 0-2-.9-2-2s.9-2 2-2h9.7c-.8-.8-.8-2.1 0-2.8.8-.8 2-.8 2.8 0l3.4 3.4v1.1Zm-22.8-7.6-.1-.1v-.6l.1-.1 3.4-3.4c.8-.8 2-.8 2.8 0 .8.8.8 2 0 2.8h9.7c1.1 0 2 .9 2 2s-.9 2-2 2h-9.7c.8.8.8 2.1 0 2.8-.4.4-.9.6-1.4.6s-1-.2-1.4-.6l-3.4-3.4Zm11.4-16.5c-10.6 0-19.3 8.7-19.3 19.3S70 100 80.7 100 100 91.3 100 80.7s-8.6-19.3-19.3-19.3Z" style="fill:#00ccbf;fill-rule:evenodd;stroke-width:0"/><path class="cls-1" d="M38.8 46.8c-4.2 0-4.2-6.5 0-6.5s4.2 6.5 0 6.5m-12.2 0c-4.2 0-4.2-6.5 0-6.5s4.2 6.5 0 6.5m-12.3 0c-4.2 0-4.2-6.5 0-6.5s4.2 6.5 0 6.5m55.2-16.1H12.9c-16.9 0-16.9 25.8 0 25.9h56.6c16.9 0 16.9-25.8 0-25.9M38.8 16.1c-4.2 0-4.2-6.5 0-6.5s4.2 6.5 0 6.5m-12.2 0c-4.2 0-4.2-6.5 0-6.5s4.2 6.5 0 6.5m-12.3 0c-4.2 0-4.2-6.5 0-6.5s4.2 6.5 0 6.5M69.5 0H12.9C-4 0-4 25.8 12.9 25.9h56.6C86.4 25.8 86.4 0 69.5 0M38.8 77.6c-4.2 0-4.2-6.5 0-6.5s4.2 6.5 0 6.5m-12.2 0c-4.2 0-4.2-6.5 0-6.5s4.2 6.5 0 6.5m-12.3 0c-4.2 0-4.2-6.5 0-6.5s4.2 6.5 0 6.5m53.5-16.2H12.9c-16.9 0-16.9 25.8 0 25.9h45.6c-3-9.5 1.2-20.7 9.3-25.9"/></svg>